<?xml version="1.0" encoding="UTF-8"?>
<svg version="1.1" xmlns="http://www.w3.org/2000/svg" width="512" height="512">
<path d="M0 0 C1.88063481 1.48326219 3.14149167 2.87845998 4.4921875 4.84765625 C5.1315625 5.73453125 5.7709375 6.62140625 6.4296875 7.53515625 C8.47839884 13.92231515 8.74474831 19.06418778 5.9453125 25.28515625 C3.96640946 28.91514708 1.7579361 32.39151661 -0.5078125 35.84765625 C-14.02955312 56.72593858 -24.068726 79.24204774 -32.87133789 102.47973633 C-36.02538388 110.6488463 -39.52248258 116.01275617 -47.5078125 119.84765625 C-52.1316596 121.65742006 -56.79191339 123.29114461 -61.5078125 124.84765625 C-60.6415625 125.79640625 -59.7753125 126.74515625 -58.8828125 127.72265625 C-52.75277703 135.0057222 -48.91517963 140.65926139 -49.15130615 150.38745117 C-49.83579421 157.03100484 -51.86795594 163.30620833 -53.828125 169.66015625 C-54.28470794 171.18282985 -54.73989547 172.70592248 -55.19378662 174.22940063 C-56.40379075 178.2747681 -57.6343994 182.31356851 -58.87032318 186.35108185 C-59.89136158 189.69420845 -60.90140001 193.04061566 -61.91146278 196.38707161 C-64.63692932 205.41575382 -67.39149267 214.43530752 -70.15942383 223.4510498 C-71.37735229 227.41897849 -72.58724545 231.38929067 -73.79492188 235.36035156 C-75.36196004 240.50756804 -76.94452039 245.64962876 -78.54632568 250.78613281 C-79.09337248 252.54306911 -79.63670075 254.30116865 -80.17584229 256.06054688 C-84.96531137 271.62985121 -90.49741565 286.36474305 -102.5078125 297.84765625 C-103.2090625 298.55664062 -103.9103125 299.265625 -104.6328125 299.99609375 C-111.26910377 306.37891556 -118.86143704 311.32208669 -126.4765625 316.4375 C-131.39292852 319.74710476 -136.21203631 323.17874408 -141.0078125 326.66015625 C-141.75224609 327.19954834 -142.49667969 327.73894043 -143.26367188 328.29467773 C-146.52320347 330.66163169 -149.77352049 333.04007576 -153.0078125 335.44140625 C-154.4928125 336.5396875 -154.4928125 336.5396875 -156.0078125 337.66015625 C-156.843125 338.28535156 -157.6784375 338.91054688 -158.5390625 339.5546875 C-160.5078125 340.84765625 -160.5078125 340.84765625 -162.5078125 340.84765625 C-162.56839844 341.7190625 -162.62898437 342.59046875 -162.69140625 343.48828125 C-162.77519531 344.679375 -162.85898438 345.87046875 -162.9453125 347.09765625 C-163.06712891 348.83789062 -163.06712891 348.83789062 -163.19140625 350.61328125 C-163.58426241 356.02839963 -164.05024536 361.43769682 -164.5078125 366.84765625 C-163.91614288 366.85352249 -163.32447327 366.85938873 -162.71487427 366.86543274 C-156.51696885 366.92972112 -150.31956578 367.01422924 -144.12207031 367.11010742 C-141.81386976 367.14321553 -139.505591 367.17129069 -137.19726562 367.1940918 C-133.86554861 367.22789808 -130.53453932 367.28022692 -127.203125 367.3359375 C-126.18292267 367.34232742 -125.16272034 367.34871735 -124.11160278 367.3553009 C-114.43799877 367.5506374 -106.32893223 369.14297238 -99.19921875 375.94140625 C-93.43995565 382.43221547 -92.07734022 388.9231986 -92.171875 397.421875 C-92.88604344 404.70473223 -96.15959387 409.91702428 -101.4453125 414.84765625 C-104.60961837 417.39951582 -107.49142453 418.94396896 -111.5078125 419.84765625 C-105.17015443 422.81440256 -98.7865816 424.34149994 -91.97851562 425.86523438 C-80.64229099 428.53715917 -71.2262294 433.86533082 -64.6328125 443.78515625 C-58.5103441 454.57336782 -58.35519634 465.74436213 -58.4453125 477.84765625 C-58.44982422 479.00394531 -58.45433594 480.16023438 -58.45898438 481.3515625 C-58.47068721 484.1836485 -58.48708254 487.01562436 -58.5078125 489.84765625 C-56.68407104 489.80838013 -56.68407104 489.80838013 -54.82348633 489.76831055 C-50.30430569 489.67767865 -45.78520506 489.62035977 -41.26538086 489.57299805 C-39.31081627 489.54788344 -37.35634533 489.51378494 -35.40209961 489.47045898 C-32.58944582 489.40967191 -29.77803548 489.38141642 -26.96484375 489.359375 C-26.09382523 489.33356857 -25.2228067 489.30776215 -24.32539368 489.28117371 C-19.87147435 489.27912361 -18.08483727 489.39840752 -14.45825195 492.22192383 C-12.34522279 495.06653876 -11.82816387 496.35014379 -11.8828125 499.84765625 C-11.86992187 500.67265625 -11.85703125 501.49765625 -11.84375 502.34765625 C-12.8647517 506.19142734 -14.30224774 507.45909163 -17.5078125 509.84765625 C-21.44818466 510.60594418 -25.34849086 510.52181296 -29.35070801 510.48257446 C-31.17104703 510.49427439 -31.17104703 510.49427439 -33.02816057 510.50621068 C-36.39397111 510.52270896 -39.7583874 510.51676638 -43.12411332 510.50127959 C-46.75474241 510.48997336 -50.38524906 510.50742511 -54.01585388 510.5211792 C-61.12701719 510.54342408 -68.23791678 510.53860496 -75.34909046 510.52411599 C-81.12793638 510.51282862 -86.90670835 510.51129067 -92.68556213 510.51673508 C-93.50772336 510.51750124 -94.32988458 510.51826741 -95.17695978 510.51905679 C-96.84711248 510.5206554 -98.51726515 510.52227647 -100.18741781 510.52391975 C-115.85215265 510.5381809 -131.51674124 510.52177881 -147.1814521 510.49491791 C-160.62543584 510.47257877 -174.06920374 510.4764588 -187.51318359 510.49951172 C-203.1214699 510.52626329 -218.72962799 510.53680757 -234.33793402 510.5214504 C-236.00197695 510.51985764 -237.6660199 510.51828578 -239.33006287 510.51673508 C-240.14882512 510.5159637 -240.96758737 510.51519232 -241.81116059 510.51439757 C-247.58373816 510.51007863 -253.35623446 510.51737128 -259.12879944 510.52913284 C-266.1627365 510.54314927 -273.19639454 510.53937619 -280.23029959 510.51272912 C-283.8198823 510.49957908 -287.40899966 510.49445808 -290.99857903 510.51097488 C-294.88762209 510.52859911 -298.77590147 510.50757047 -302.66491699 510.48257446 C-303.80255383 510.49372807 -304.94019067 510.50488168 -306.11230135 510.51637328 C-313.73850085 510.42089396 -313.73850085 510.42089396 -317.70648956 507.46422386 C-319.65389904 504.63545371 -320.18594616 503.24821068 -320.1328125 499.84765625 C-320.14570313 499.02265625 -320.15859375 498.19765625 -320.171875 497.34765625 C-319.19457481 493.66840847 -317.45012925 492.22364482 -314.5078125 489.84765625 C-311.71943277 489.40762483 -309.56729197 489.25680193 -306.80078125 489.359375 C-306.07538651 489.36644974 -305.34999176 489.37352448 -304.60261536 489.3808136 C-302.29910547 489.40867219 -299.99807999 489.47138434 -297.6953125 489.53515625 C-296.12829047 489.56025062 -294.5612301 489.58306181 -292.99414062 489.60351562 C-289.16441594 489.65846944 -285.33653453 489.74467399 -281.5078125 489.84765625 C-281.53137817 488.61631958 -281.53137817 488.61631958 -281.55541992 487.36010742 C-281.60710967 484.26068538 -281.64443158 481.16148587 -281.67260742 478.06176758 C-281.6947872 476.08204389 -281.73294247 474.10251961 -281.77148438 472.12304688 C-281.87828852 458.06050155 -278.93257892 446.71885988 -269.3828125 436.09765625 C-260.89056446 428.30089404 -250.59298757 425.84025527 -239.63037109 423.49560547 C-238.31480225 423.21354248 -238.31480225 423.21354248 -236.97265625 422.92578125 C-236.1849585 422.7649707 -235.39726074 422.60416016 -234.58569336 422.43847656 C-232.22937089 421.88301975 -232.22937089 421.88301975 -229.5078125 419.84765625 C-231.27125 419.07421875 -231.27125 419.07421875 -233.0703125 418.28515625 C-239.01459661 415.29193517 -243.10878185 411.31927707 -246.3828125 405.53515625 C-249.25175245 396.13140865 -248.99002663 388.3882624 -244.3203125 379.6171875 C-240.27507495 373.49187041 -234.4758517 370.11589555 -227.40380859 368.31054688 C-223.50216438 367.68691533 -219.65272997 367.61312571 -215.70703125 367.53125 C-214.87065628 367.5104689 -214.03428131 367.48968781 -213.17256165 367.46827698 C-210.51355829 367.40314591 -207.85446022 367.34406675 -205.1953125 367.28515625 C-203.38736019 367.24193633 -201.57941728 367.19832095 -199.77148438 367.15429688 C-195.35035628 367.04750209 -190.92913338 366.946133 -186.5078125 366.84765625 C-186.0517773 362.82858324 -185.60659746 358.80846563 -185.17114258 354.78710938 C-185.02172887 353.42122578 -184.86942943 352.05565448 -184.71411133 350.69042969 C-184.4904901 348.72026193 -184.27833814 346.74880319 -184.06640625 344.77734375 C-183.87002563 343.00206299 -183.87002563 343.00206299 -183.66967773 341.19091797 C-183.37621759 335.12961595 -184.69835694 330.97897597 -187.53515625 325.65625 C-187.83983826 325.07774796 -188.14452026 324.49924591 -188.45843506 323.9032135 C-189.11008541 322.66705996 -189.76526255 321.43276016 -190.42367554 320.20019531 C-192.15412034 316.95650942 -193.85273404 313.69619861 -195.5546875 310.4375 C-195.89445114 309.78836639 -196.23421478 309.13923279 -196.58427429 308.47042847 C-217.90461705 267.66570156 -218.7188132 235.14328921 -205.25 191.3515625 C-204.67262676 189.51586819 -204.09213168 187.68115143 -203.5078125 185.84765625 C-203.26450195 185.08050293 -203.02119141 184.31334961 -202.77050781 183.52294922 C-190.10767509 144.23959157 -169.05424323 106.74899122 -140.5078125 76.84765625 C-139.29068407 75.45948533 -138.08135858 74.06440246 -136.8828125 72.66015625 C-130.6115472 65.46752022 -123.83178522 59.11418994 -116.37890625 53.16015625 C-113.45111095 50.80198643 -110.60930081 48.35975695 -107.7578125 45.91015625 C-92.04604029 32.82712328 -73.81202644 22.59491481 -55.43115234 13.77246094 C-53.56180024 12.87361532 -51.70073343 11.95917591 -49.83984375 11.04296875 C-46.10025541 9.22235328 -42.3199438 7.51050117 -38.5078125 5.84765625 C-37.40348877 5.36087402 -37.40348877 5.36087402 -36.27685547 4.86425781 C-25.37891328 0.15693008 -11.66788734 -5.3614124 0 0 Z M-18.5078125 20.84765625 C-51.02061839 33.59722758 -80.29031922 49.63558293 -106.5078125 72.84765625 C-107.05179687 73.32847656 -107.59578125 73.80929688 -108.15625 74.3046875 C-134.27877856 97.54515305 -154.58712994 126.30318592 -169.5078125 157.84765625 C-169.8363623 158.53666016 -170.16491211 159.22566406 -170.50341797 159.93554688 C-179.72637485 179.43474121 -186.39907399 199.91135806 -191.5078125 220.84765625 C-191.68715332 221.58064941 -191.86649414 222.31364258 -192.05126953 223.06884766 C-198.46532607 250.19642143 -191.87911477 270.64304633 -179.5078125 294.84765625 C-178.83973258 296.18028202 -178.17256057 297.51336534 -177.5078125 298.84765625 C-176.8478125 298.84765625 -176.1878125 298.84765625 -175.5078125 298.84765625 C-175.34289307 298.13150146 -175.17797363 297.41534668 -175.00805664 296.67749023 C-169.24912864 271.84272767 -162.67889691 247.33905838 -154.1953125 223.28515625 C-153.78692139 222.11976318 -153.37853027 220.95437012 -152.95776367 219.75366211 C-148.02031647 206.10390823 -148.02031647 206.10390823 -143.5078125 203.84765625 C-138.51560965 203.47088622 -135.52761107 203.77369264 -131.5078125 206.84765625 C-129.31647143 211.23033838 -130.05237598 216.20819424 -131.3203125 220.77246094 C-132.48841901 224.11512286 -133.73367435 227.41896845 -135.0078125 230.72265625 C-135.93782694 233.23514478 -136.86361286 235.74864365 -137.78125 238.265625 C-138.01391571 238.90178238 -138.24658142 239.53793976 -138.48629761 240.19337463 C-144.47586708 256.68693796 -148.8392968 273.69495354 -153.0078125 290.72265625 C-153.1858844 291.44528656 -153.3639563 292.16791687 -153.54742432 292.91244507 C-154.05176199 294.96993691 -154.54715913 297.02934775 -155.0390625 299.08984375 C-155.32330078 300.27433105 -155.60753906 301.45881836 -155.90039062 302.67919922 C-156.44239809 305.50643911 -156.63443391 307.98183658 -156.5078125 310.84765625 C-150.94055106 307.81364605 -145.86599177 304.34637439 -140.7578125 300.59765625 C-139.16151869 299.432209 -137.56516469 298.26684417 -135.96875 297.1015625 C-135.20272461 296.54098145 -134.43669922 295.98040039 -133.64746094 295.40283203 C-131.83356742 294.084427 -130.00950233 292.78496177 -128.171875 291.5 C-113.63360796 281.25805557 -107.47231193 270.94804729 -102.0703125 254.22265625 C-101.55242815 252.64298001 -101.03427301 251.06339254 -100.51586914 249.48388672 C-94.46110674 230.93311068 -88.80231488 212.25694575 -83.21826172 193.56005859 C-81.80562488 188.83241786 -80.37385292 184.11081517 -78.93714905 179.39044189 C-77.86590581 175.85861162 -76.80876081 172.32268537 -75.75588989 168.78533936 C-75.26146249 167.13289129 -74.7617745 165.48200713 -74.25656128 163.83282471 C-73.56474343 161.56983106 -72.89319617 159.30176833 -72.2265625 157.03125 C-72.02011612 156.37200027 -71.81366974 155.71275055 -71.60096741 155.03352356 C-70.73257205 152.00096904 -70.4369702 150.10393411 -71.28540039 147.03466797 C-72.71623676 144.4747654 -74.39223377 142.62646736 -76.4453125 140.53515625 C-81.11467326 135.42512987 -83.07733388 131.22998828 -83.9453125 124.41015625 C-83.10915479 117.60144349 -80.78599207 112.2747145 -75.32763672 107.91601562 C-73.25427681 106.69881372 -71.550002 106.29975482 -69.1875 105.8828125 C-63.65408778 104.86399846 -58.90225235 103.49785354 -54.5078125 99.84765625 C-49.84312961 92.7674474 -47.52162825 84.30157877 -44.83006287 76.31388855 C-42.23793813 68.76400596 -38.87323595 61.6290607 -35.36068726 54.46990967 C-34.3538268 52.41602184 -33.36425362 50.3544988 -32.3762207 48.29150391 C-28.79616764 40.9163563 -24.87799327 33.96973293 -20.22261047 27.21203613 C-19.26194952 25.79342513 -18.37672939 24.32424356 -17.5078125 22.84765625 C-17.8378125 22.18765625 -18.1678125 21.52765625 -18.5078125 20.84765625 Z M-226.5078125 390.84765625 C-227.59349753 392.69033493 -227.59349753 392.69033493 -227.5078125 394.84765625 C-226.35185336 397.03052696 -226.35185336 397.03052696 -224.5078125 398.84765625 C-222.4040914 399.44037999 -222.4040914 399.44037999 -220.02244568 399.34213257 C-219.10406921 399.35052155 -218.18569275 399.35891052 -217.23948669 399.36755371 C-215.73153282 399.35069519 -215.73153282 399.35069519 -214.19311523 399.33349609 C-213.13275055 399.33729279 -212.07238586 399.34108948 -210.97988892 399.34500122 C-207.46676273 399.35242483 -203.95445922 399.33099946 -200.44140625 399.30859375 C-198.00667925 399.3062105 -195.5719504 399.30530375 -193.13722229 399.30581665 C-188.03187569 399.30268561 -182.92680932 399.28609542 -177.8215332 399.25927734 C-171.26499357 399.22527927 -164.70876189 399.21764908 -158.15214443 399.21916771 C-153.12426289 399.21862488 -148.09644919 399.20767193 -143.06859016 399.19316483 C-140.65037614 399.18678387 -138.23215441 399.18285491 -135.81393242 399.18137741 C-132.44019238 399.17705923 -129.06678438 399.15959057 -125.69311523 399.13818359 C-124.68578842 399.13908997 -123.67846161 399.13999634 -122.64060974 399.14093018 C-121.26727478 399.12813522 -121.26727478 399.12813522 -119.86619568 399.11508179 C-119.06813224 399.1117301 -118.2700688 399.10837841 -117.44782162 399.10492516 C-115.27113303 399.01631866 -115.27113303 399.01631866 -113.5078125 396.84765625 C-113.00766297 394.39024088 -113.00766297 394.39024088 -113.5078125 391.84765625 C-116.28354979 389.24545182 -118.17596499 388.47260778 -121.94812012 388.47343445 C-123.27292641 388.46291298 -123.27292641 388.46291298 -124.62449646 388.45217896 C-126.06623985 388.46364456 -126.06623985 388.46364456 -127.53710938 388.4753418 C-128.55539322 388.47169113 -129.57367706 388.46804047 -130.62281799 388.46427917 C-133.99090214 388.45616907 -137.3585059 388.46978798 -140.7265625 388.484375 C-143.06538899 388.48489355 -145.40421593 388.48437605 -147.74304199 388.48286438 C-152.64565535 388.48295412 -157.54810433 388.49338828 -162.45068359 388.51147461 C-168.73907115 388.53416168 -175.02721847 388.53470605 -181.31563568 388.52795696 C-186.14542786 388.52461756 -190.97516513 388.53124656 -195.8049469 388.5410862 C-198.12382215 388.54493897 -200.44270351 388.54608609 -202.76158142 388.54450035 C-206.00067813 388.54413004 -209.23946535 388.55674073 -212.47851562 388.57299805 C-213.43967789 388.57052063 -214.40084015 388.56804321 -215.39112854 388.56549072 C-216.27433273 388.57257553 -217.15753693 388.57966034 -218.06750488 388.58695984 C-218.83292854 388.58901271 -219.5983522 388.59106558 -220.38697052 388.59318066 C-222.8226668 388.88543499 -224.42709024 389.56154802 -226.5078125 390.84765625 Z M-202.09326172 424.16821289 C-202.4895578 424.95208878 -202.88585388 425.73596466 -203.29415894 426.54359436 C-208.32499581 436.09439193 -220.19070933 439.98580169 -229.84765625 443.10546875 C-232.04293058 443.71795351 -234.23011428 444.26214784 -236.44921875 444.77734375 C-237.15731689 444.94419678 -237.86541504 445.1110498 -238.5949707 445.28295898 C-240.0059158 445.61057091 -241.41981114 445.92579695 -242.83666992 446.22680664 C-247.726855 447.3536572 -249.32064034 448.49791852 -253.5078125 451.84765625 C-198.7278125 451.84765625 -143.9478125 451.84765625 -87.5078125 451.84765625 C-91.52098837 447.83448038 -93.61055648 446.98312088 -98.8203125 445.91015625 C-100.26008617 445.57708905 -101.69887516 445.23974056 -103.13671875 444.8984375 C-104.22944092 444.64054443 -104.22944092 444.64054443 -105.34423828 444.37744141 C-117.84508215 441.31641329 -130.66393361 437.07340902 -138.1953125 425.97265625 C-139.38428029 423.95947775 -140.46264412 421.93799301 -141.5078125 419.84765625 C-148.83548709 419.63867773 -156.16251488 419.47899465 -163.49257088 419.3813467 C-166.89683744 419.3344656 -170.2990591 419.27095045 -173.70214844 419.16870117 C-177.61888705 419.05176196 -181.53481224 419.00845595 -185.453125 418.96875 C-186.66896271 418.92229843 -187.88480042 418.87584686 -189.13748169 418.82798767 C-195.20821159 418.82437003 -198.60327542 418.87152365 -202.09326172 424.16821289 Z M-260.5078125 472.84765625 C-260.5078125 478.45765625 -260.5078125 484.06765625 -260.5078125 489.84765625 C-200.7778125 489.84765625 -141.0478125 489.84765625 -79.5078125 489.84765625 C-79.5078125 484.23765625 -79.5078125 478.62765625 -79.5078125 472.84765625 C-139.2378125 472.84765625 -198.9678125 472.84765625 -260.5078125 472.84765625 Z " fill="#E74C3C" transform="translate(412.5078125,1.15234375)"/>
<path d="M0 0 C2.46810594 2.1516821 3.74159986 3.68402403 4.37890625 6.9296875 C4.60432912 10.78369142 4.24527155 12.61574124 2.125 15.9375 C-1.35759745 19.31766811 -4.03637499 19.40798732 -8.73828125 19.33984375 C-11 19 -11 19 -14 16.9375 C-16.40813237 13.40055558 -17 11.27436594 -17 7 C-15.68505131 2.72641675 -14.57585305 1.35437111 -10.75 -1 C-6.2516073 -2.19957139 -4.2201637 -1.91101752 0 0 Z " fill="#E74C3C" transform="translate(294,164)"/>
</svg>
