<?xml version="1.0" encoding="UTF-8"?>
<svg version="1.1" xmlns="http://www.w3.org/2000/svg" width="512" height="512">
<path d="M0 0 C1.12583691 -0.00453111 2.25167382 -0.00906223 3.41162699 -0.01373065 C7.18621808 -0.0263965 10.96066528 -0.02475284 14.73527527 -0.02310181 C17.4407404 -0.02799893 20.14619542 -0.03583427 22.85165405 -0.04345703 C29.43922638 -0.06005514 36.02676292 -0.06556604 42.61435441 -0.06668179 C47.97026089 -0.06763282 53.32615558 -0.07174586 58.68205833 -0.07808304 C73.8741823 -0.09569215 89.06627803 -0.10492242 104.25841228 -0.10342209 C105.07706613 -0.10334218 105.89571998 -0.10326227 106.73918152 -0.10317993 C107.55883739 -0.10309817 108.37849327 -0.10301641 109.2229872 -0.10293217 C122.50528627 -0.10211935 135.78747192 -0.12125693 149.06973819 -0.14945666 C162.71487942 -0.17819774 176.35996536 -0.19199629 190.00513762 -0.19026911 C197.6630585 -0.18960564 205.32086047 -0.19507929 212.97875404 -0.21662521 C219.49903443 -0.23485314 226.019142 -0.2391712 232.53943685 -0.22560637 C235.86425236 -0.21908461 239.18846646 -0.22111143 242.51329422 -0.23631287 C246.12284658 -0.25174629 249.73153081 -0.24246836 253.34106445 -0.22705078 C254.38465789 -0.23733791 255.42825133 -0.24762503 256.50346881 -0.25822389 C266.08067444 -0.16793695 273.08786124 2.82448593 280.07194519 9.34945679 C288.83498308 18.7438926 289.15727352 28.9079815 289.1217041 41.22174072 C289.12472752 42.6404516 289.12861795 44.05916086 289.13329667 45.47786725 C289.14356093 49.36265597 289.14139887 53.24735225 289.13711607 57.1321485 C289.134646 61.32720413 289.14366651 65.52223766 289.15115356 69.71728516 C289.16389473 77.93054248 289.16569498 86.1437671 289.1633533 94.35703264 C289.16156934 101.033915 289.16332146 107.71078744 289.16757774 114.38766861 C289.16817293 115.33842173 289.16876812 116.28917485 289.16938135 117.26873866 C289.17059311 119.20027708 289.17180725 121.1318155 289.17302372 123.06335391 C289.18389701 141.17227927 289.18173776 159.28118601 289.17563888 177.39011241 C289.17046985 193.95011243 289.18172516 210.51005362 289.2007371 227.070042 C289.22011741 244.0815558 289.22837116 261.09304178 289.22461385 278.10456669 C289.2227021 287.65214736 289.22518676 297.19967795 289.23932838 306.7472496 C289.2512456 314.87516817 289.25264323 323.00300584 289.24053822 331.13092552 C289.23465196 335.27596798 289.23354309 339.4208625 289.24554062 343.56589508 C289.25640745 347.36449524 289.25328669 351.1628241 289.23927893 354.96141161 C289.23538665 356.97773245 289.24617255 358.99406538 289.25757581 361.01035774 C289.18937784 372.49189792 287.3171389 381.05349833 279.61100769 389.82992554 C269.79357017 398.53174515 260.69852598 399.65841594 247.86100769 399.26742554 C247.90741394 400.15043335 247.95382019 401.03344116 248.00163269 401.94320679 C248.3121778 412.26883153 246.8915701 421.35944887 240.41178894 429.70492554 C233.3812208 436.78862139 224.85123079 440.12592305 214.96647644 440.32601929 C212.26378659 440.32948872 209.56330594 440.31140507 206.86100769 440.26742554 C206.91321472 441.62674194 206.91321472 441.62674194 206.96647644 443.01351929 C207.22308394 454.56085669 205.60304333 463.35235419 197.86100769 472.26742554 C189.66349979 479.14275475 182.17043353 480.56566258 171.72201538 480.53485107 C170.03326002 480.54164774 170.03326002 480.54164774 168.31038839 480.54858172 C164.5357973 480.56124758 160.7613501 480.55960391 156.98674011 480.55795288 C154.28127498 480.56285001 151.57581996 480.57068535 148.87036133 480.57830811 C142.282789 480.59490622 135.69525246 480.60041711 129.10766097 480.60153286 C123.75175449 480.60248389 118.3958598 480.60659694 113.03995705 480.61293411 C97.84783308 480.63054322 82.65573735 480.63977349 67.4636031 480.63827316 C66.64494925 480.63819325 65.8262954 480.63811334 64.98283386 480.63803101 C64.16317799 480.63794924 63.34352211 480.63786748 62.49902818 480.63778324 C49.21672911 480.63697042 35.93454346 480.656108 22.65227719 480.68430774 C9.00713596 480.71304882 -4.63794998 480.72684736 -18.28312224 480.72512019 C-25.94104312 480.72445671 -33.59884508 480.72993037 -41.25673866 480.75147629 C-47.77701905 480.76970421 -54.29712662 480.77402227 -60.81742147 480.76045744 C-64.14223698 480.75393568 -67.46645108 480.75596251 -70.79127884 480.77116394 C-74.4008312 480.78659737 -78.00951543 480.77731943 -81.61904907 480.76190186 C-82.66264251 480.77218898 -83.70623595 480.78247611 -84.78145343 480.79307497 C-94.35865906 480.70278803 -101.36584586 477.71036515 -108.34992981 471.18539429 C-117.11997331 461.78344809 -117.43551821 451.60498811 -117.40641785 439.28187561 C-117.41015805 437.85975222 -117.41476104 436.43763087 -117.42014849 435.01551276 C-117.43234808 431.1212576 -117.43212163 427.22708853 -117.42975974 423.33281863 C-117.42935081 419.12751553 -117.44039797 414.92223976 -117.44987488 410.71694946 C-117.46646879 402.4833074 -117.47198368 394.24969398 -117.47309963 386.01603659 C-117.4740508 379.32199992 -117.47816453 372.62797267 -117.48450089 365.93393898 C-117.50210834 346.94547437 -117.51134045 327.95703235 -117.50983994 308.96855953 C-117.50976002 307.94545924 -117.50968011 306.92235894 -117.50959778 305.86825562 C-117.50951602 304.84390295 -117.50943426 303.81955028 -117.50935002 302.76415662 C-117.5085371 286.16278424 -117.52767758 269.5615026 -117.55587451 252.96015646 C-117.58461389 235.90456645 -117.59841425 218.84902067 -117.59668696 201.79340583 C-117.59602346 192.22174071 -117.6014984 182.65017073 -117.62304306 173.07852745 C-117.64126864 164.92939512 -117.64559082 156.78040105 -117.63202421 148.63125714 C-117.62550172 144.47592021 -117.62535127 140.32084845 -117.64273071 136.16553688 C-117.65849834 132.35633133 -117.65556064 128.54760039 -117.63816245 124.73840616 C-117.63365802 122.71883909 -117.64872076 120.69925709 -117.66464174 118.67974776 C-117.58698971 108.39036001 -115.57814134 99.19857257 -108.97102356 91.05258179 C-101.48693951 83.75998816 -92.92740858 81.18345228 -82.70149231 81.14242554 C-80.51382862 81.17436223 -78.3262076 81.21282099 -76.13899231 81.26742554 C-76.19119934 79.90810913 -76.19119934 79.90810913 -76.24446106 78.52133179 C-76.50084874 66.98388619 -74.88719447 58.17032738 -67.13899231 49.26742554 C-57.27321489 41.12424418 -47.5837692 40.06488848 -35.13899231 40.26742554 C-35.19119934 38.90810913 -35.19119934 38.90810913 -35.24446106 37.52133179 C-35.50106856 25.97399439 -33.88102795 17.18249688 -26.13899231 8.26742554 C-17.94148441 1.39209633 -10.44841815 -0.03081151 0 0 Z M-15.13899231 22.26742554 C-17.99415151 26.55016434 -18.25571725 29.41200611 -18.20149231 34.45492554 C-18.19246887 35.54160522 -18.18344543 36.62828491 -18.17414856 37.74789429 C-18.162547 38.5793396 -18.15094543 39.41078491 -18.13899231 40.26742554 C-16.92162195 40.26981389 -15.70425159 40.27220224 -14.44999123 40.27466297 C14.46996901 40.33206487 43.38986347 40.40482528 72.30973472 40.49641182 C75.87191 40.50767952 79.43408567 40.51881805 82.9962616 40.52987671 C83.70540481 40.53208039 84.41454802 40.53428408 85.14518042 40.53655454 C96.61649785 40.57189418 108.08781521 40.59677711 119.55916683 40.61777256 C131.33624782 40.6395612 143.11325837 40.67264063 154.89027941 40.7161271 C161.50255009 40.74022085 168.11476226 40.75878689 174.72707748 40.76503944 C180.95360508 40.77109187 187.17993349 40.79109801 193.40638733 40.82170105 C195.68877911 40.83047863 197.97119692 40.83420444 200.25360489 40.8324337 C203.37698617 40.83077593 206.49976385 40.84752371 209.62306213 40.86869812 C210.51997941 40.86385054 211.41689669 40.85900297 212.34099329 40.8540085 C222.14545794 40.96322032 231.50768845 43.54680107 238.86100769 50.26742554 C246.16924433 59.7509189 247.15814019 68.44367173 247.13948059 80.06782532 C247.14527299 81.36012528 247.15106539 82.65242525 247.15703332 83.98388582 C247.17279622 87.55958214 247.17626195 91.13519979 247.17768192 94.71092665 C247.18138246 98.57112137 247.19654121 102.43127326 247.21029663 106.29144287 C247.23255274 112.97570788 247.24757593 119.65995761 247.25766373 126.34425163 C247.2722594 136.0085711 247.29779873 145.67283738 247.32599501 155.33712561 C247.37144685 171.01741006 247.40806831 186.69770217 247.43913269 202.37802124 C247.46932482 217.60850368 247.50367814 232.83896738 247.54362488 248.06942749 C247.5473172 249.4780243 247.5473172 249.4780243 247.55108412 250.91507762 C247.56345885 255.6261658 247.57591536 260.33725377 247.58841252 265.04834163 C247.69195624 304.12134361 247.78116745 343.19436835 247.86100769 382.26742554 C249.95325277 382.31308477 252.04578409 382.34576283 254.13835144 382.37289429 C255.30358337 382.39247192 256.46881531 382.41204956 257.6693573 382.43222046 C263.17141184 382.14813212 265.6347208 379.62628398 269.17350769 375.70492554 C271.78753459 371.9291089 271.9874531 369.07469175 271.99522877 364.59510517 C272.00191553 362.811789 272.00191553 362.811789 272.00873739 360.99244624 C272.00855302 359.67982836 272.00836866 358.36721047 272.00817871 357.01481628 C272.01147746 355.6113707 272.01520305 354.20792606 272.01932019 352.80448264 C272.02934712 348.93876749 272.0330581 345.07306787 272.0357095 341.20734155 C272.0396105 337.04155146 272.04918897 332.87577369 272.05792236 328.70999146 C272.07769253 318.64511971 272.08775367 308.58024694 272.09665015 298.51536062 C272.10103213 293.77698563 272.10639918 289.03861176 272.11163902 284.30023766 C272.12865183 268.55112471 272.14314637 252.80201246 272.15038776 237.05289173 C272.15229769 232.96514192 272.15421802 228.87739212 272.15617371 224.78964233 C272.15665745 223.77363768 272.15714119 222.75763304 272.15763959 221.71084037 C272.16594125 205.24939121 272.19128025 188.78801469 272.22375438 172.32659725 C272.25681457 155.43051677 272.27483558 138.53447321 272.278032 121.6383602 C272.28019806 112.14998763 272.28896071 102.66172097 272.31449318 93.1733799 C272.33618596 85.09321737 272.34425761 77.0131865 272.3345264 68.93299816 C272.32997756 64.81046584 272.33190165 60.68820523 272.35128784 56.56571007 C272.36889093 52.78977637 272.36794534 49.01431317 272.35239055 45.23837467 C272.34888457 43.22926923 272.36506208 41.22015901 272.38199502 39.21112186 C272.33118908 32.09478993 271.7981749 27.27321692 267.86100769 21.26742554 C262.90453726 17.15460965 258.51721126 16.14603739 252.210392 16.13599777 C251.3003042 16.13215663 250.39021639 16.12831548 249.45255017 16.12435794 C248.4616069 16.12522442 247.47066363 16.1260909 246.44969177 16.12698364 C245.39004613 16.12401252 244.33040048 16.1210414 243.23864436 16.11798024 C239.68209344 16.10929724 236.12557619 16.10778533 232.5690155 16.10629272 C230.02133614 16.10166429 227.47365747 16.0966396 224.92597961 16.09124756 C218.00027218 16.0781245 211.07457582 16.07164204 204.14885807 16.0672369 C199.82248627 16.06447194 195.49611669 16.06023414 191.1697464 16.05573273 C179.18559535 16.04354235 167.20144608 16.03324243 155.21728897 16.02985764 C154.45064971 16.02963807 153.68401045 16.0294185 152.89413969 16.02919228 C152.12569285 16.02897401 151.35724601 16.02875573 150.5655129 16.02853084 C149.0084122 16.02808737 147.45131151 16.02764081 145.89421082 16.02719116 C145.12183928 16.02696973 144.34946774 16.0267483 143.553691 16.02652016 C131.04086682 16.02257284 118.52810091 16.0051198 106.01529923 15.98183164 C93.1612041 15.95810184 80.30713819 15.94565505 67.45302081 15.94448972 C60.23887886 15.9435739 53.02481284 15.93784502 45.81069183 15.9196701 C39.02437466 15.9026329 32.23822604 15.90102865 25.45188522 15.90980911 C22.96264383 15.91058006 20.47339473 15.90622925 17.98417282 15.89635086 C14.58269634 15.883645 11.18173123 15.88950128 7.78025818 15.89993286 C6.3072276 15.88784825 6.3072276 15.88784825 4.80443883 15.87551951 C-2.44455832 15.9274139 -10.11475286 16.4801225 -15.13899231 22.26742554 Z M-54.78352356 61.76742554 C-58.49714589 66.53675991 -59.26561793 69.49124277 -59.20149231 75.45492554 C-59.19246887 76.54160522 -59.18344543 77.62828491 -59.17414856 78.74789429 C-59.162547 79.5793396 -59.15094543 80.41078491 -59.13899231 81.26742554 C-57.31928468 81.27239076 -57.31928468 81.27239076 -55.46281528 81.27745628 C-26.64896593 81.35651721 2.16483994 81.44575352 30.97861778 81.54747715 C34.52706064 81.55999564 38.0755038 81.57242847 41.62394714 81.58480835 C42.6835695 81.58850734 42.6835695 81.58850734 43.76459838 81.59228106 C55.1945575 81.63197727 66.62452648 81.66473848 78.05451422 81.69492535 C89.78750598 81.72606727 101.52045602 81.76468835 113.25340086 81.81021559 C119.84159976 81.83545644 126.42976923 81.85724496 133.01800346 81.8707695 C139.22068671 81.88361161 145.42326892 81.90568949 151.62589645 81.93480873 C153.90064844 81.94386764 156.17541669 81.9495708 158.45018578 81.95163918 C161.5606649 81.95497357 164.67085963 81.97048317 167.78128052 81.98895264 C168.67721969 81.9870179 169.57315886 81.98508317 170.49624771 81.9830898 C181.27066716 82.07845181 190.79653694 84.33035964 198.72038269 92.08773804 C205.78799445 100.72981776 206.30329216 110.67746313 206.25973511 121.42858887 C206.26638193 122.72345211 206.27302876 124.01831535 206.27987701 125.35241687 C206.29780298 128.92137735 206.29735757 132.4901287 206.29374754 136.05912352 C206.29312124 139.91723161 206.30976664 143.77527102 206.32426453 147.63334656 C206.34701117 154.30938355 206.35892883 160.98536851 206.36339378 167.6614418 C206.36986507 177.31378908 206.39281965 186.96604245 206.41973708 196.6183518 C206.46296878 212.2803345 206.49295618 227.94231324 206.51457214 243.6043396 C206.53559268 258.81432034 206.56287716 274.02426868 206.59855652 289.23422241 C206.60075534 290.17249878 206.60295417 291.11077516 206.60521962 292.07748415 C206.61628955 296.78476049 206.6274823 301.49203654 206.63873613 306.19931245 C206.73187 345.22198856 206.80349171 384.24468162 206.86100769 423.26742554 C208.78929504 423.29788108 210.71772086 423.31965754 212.64616394 423.33773804 C213.72003357 423.35078979 214.7939032 423.36384155 215.90031433 423.37728882 C220.36615435 423.21157364 223.13982223 421.98861099 226.29069519 418.83773804 C230.16822499 414.43444149 230.98554446 411.29304115 230.99243546 405.57390118 C230.9962766 404.38030694 231.00011775 403.1867127 231.00407529 401.95694894 C231.00277557 399.98013932 231.00277557 399.98013932 231.00144958 397.96339417 C231.00403259 396.5543986 231.00704557 395.14540377 231.01045299 393.73640996 C231.01853382 389.85542978 231.02031316 385.97446807 231.02105045 382.09348047 C231.02289912 377.91137022 231.03044549 373.72926961 231.03718567 369.54716492 C231.050777 360.39847246 231.0567949 351.24978439 231.06119633 342.10108352 C231.06395728 336.39078093 231.06819436 330.68048004 231.0727005 324.9701786 C231.084894 309.1661588 231.09519329 293.36214036 231.09857559 277.55811596 C231.09879516 276.54630765 231.09901472 275.53449933 231.09924094 274.49203016 C231.09945922 273.47777501 231.0996775 272.46351985 231.09990239 271.41852969 C231.10034586 269.36319745 231.10079242 267.3078652 231.10124207 265.25253296 C231.1014635 264.23301307 231.10168492 263.21349319 231.10191306 262.16307876 C231.10586207 245.63886089 231.12331884 229.11468709 231.14660159 212.59048625 C231.17030183 195.63339446 231.18277683 178.6763248 231.18394351 161.71921617 C231.184861 152.19515827 231.19063181 142.67115781 231.20876312 133.14711571 C231.22414618 125.03799789 231.22929519 116.92895524 231.22102502 108.81982561 C231.21711219 104.68138525 231.21807885 100.54309636 231.23208237 96.40467453 C231.24478342 92.61657577 231.24365741 88.82874288 231.23149166 85.04064468 C231.22859737 83.02013003 231.24049911 80.99961094 231.25291371 78.97913235 C231.24302895 77.17700613 231.24302895 77.17700613 231.23294449 75.33847332 C231.23354158 74.30346304 231.23413867 73.26845275 231.23475385 72.20207852 C230.62752501 67.43412065 228.67956632 63.4282303 224.86100769 60.45492554 C221.18628104 57.77543736 218.77726783 57.14285781 214.3544035 57.13599777 C212.96111923 57.13023605 212.96111923 57.13023605 211.53968781 57.12435794 C210.51752681 57.12522442 209.4953658 57.1260909 208.44223022 57.12698364 C207.35767542 57.12401252 206.27312061 57.1210414 205.1557005 57.11798024 C201.5030185 57.10927334 197.85036919 57.10778331 194.19767761 57.10629272 C191.58631317 57.10166599 188.9749494 57.09664152 186.36358643 57.09124756 C179.25615158 57.07766179 172.14872237 57.07163917 165.04127669 57.0672369 C160.60404767 57.06447495 156.16682083 57.06023769 151.72959328 57.05573273 C139.44613246 57.04353985 127.16267339 57.0332405 114.87920666 57.02985764 C114.0929368 57.02963807 113.30666694 57.0294185 112.49657072 57.02919228 C111.31433206 57.02886487 111.31433206 57.02886487 110.10820979 57.02853084 C108.51107927 57.02808737 106.91394875 57.02764081 105.31681824 57.02719116 C104.52458508 57.02696973 103.73235191 57.0267483 102.91611169 57.02652016 C90.07780804 57.02257177 77.23956114 57.00511659 64.40127941 56.98183164 C51.22294858 56.9581227 38.04464623 56.945656 24.86629373 56.94448972 C17.46610029 56.94357271 10.0659808 56.93781394 2.66580772 56.9196701 C-4.29365163 56.90266704 -11.25296838 56.90101308 -18.2124424 56.90980911 C-20.76905696 56.91058177 -23.32567895 56.90620682 -25.88227463 56.89635086 C-29.36810666 56.883699 -32.85343582 56.88947174 -36.33926392 56.89993286 C-37.86246717 56.88784825 -37.86246717 56.88784825 -39.41644222 56.87551951 C-45.49488467 56.91828333 -50.09526279 57.49119718 -54.78352356 61.76742554 Z M-95.88117981 102.76742554 C-99.33791825 107.34462403 -100.2633902 110.28057637 -100.27321339 115.9397459 C-100.27767123 117.12862335 -100.28212907 118.3175008 -100.286722 119.54240483 C-100.28653764 120.85502272 -100.28635328 122.1676406 -100.28616333 123.52003479 C-100.28946207 124.92348038 -100.29318767 126.32692501 -100.29730481 127.73036844 C-100.30733174 131.59608359 -100.31104272 135.46178321 -100.31369412 139.32750952 C-100.31759512 143.49329961 -100.32717359 147.65907738 -100.33590698 151.82485962 C-100.35567714 161.88973137 -100.36573829 171.95460413 -100.37463477 182.01949045 C-100.37901675 186.75786544 -100.3843838 191.49623931 -100.38962364 196.23461342 C-100.40663644 211.98372637 -100.42113099 227.73283862 -100.42837238 243.48195934 C-100.43028231 247.56970915 -100.43220264 251.65745895 -100.43415833 255.74520874 C-100.43464207 256.76121339 -100.43512581 257.77721804 -100.4356242 258.82401071 C-100.44392587 275.28545987 -100.46926487 291.74683639 -100.501739 308.20825382 C-100.53479919 325.10433431 -100.5528202 342.00037787 -100.55601662 358.89649087 C-100.55818268 368.38486345 -100.56694533 377.8731301 -100.5924778 387.36147118 C-100.61417058 395.4416337 -100.62224223 403.52166458 -100.61251102 411.60185292 C-100.60796218 415.72438523 -100.60988627 419.84664585 -100.62927246 423.96914101 C-100.64687554 427.7450747 -100.64592996 431.52053791 -100.63037517 435.2964764 C-100.62686919 437.30558185 -100.6430467 439.31469207 -100.65997964 441.32372922 C-100.6091737 448.44006115 -100.07615952 453.26163415 -96.13899231 459.26742554 C-91.18252188 463.38024143 -86.79519587 464.38881368 -80.48837662 464.3988533 C-79.57828882 464.40269445 -78.66820101 464.40653559 -77.73053479 464.41049314 C-76.73959152 464.40962665 -75.74864825 464.40876017 -74.72767639 464.40786743 C-73.66803075 464.41083855 -72.6083851 464.41380968 -71.51662898 464.41687083 C-67.96007806 464.42555383 -64.40356081 464.42706575 -60.84700012 464.42855835 C-58.29932076 464.43318678 -55.75164209 464.43821147 -53.20396423 464.44360352 C-46.2782568 464.45672657 -39.35256044 464.46320904 -32.42684269 464.46761417 C-28.10047089 464.47037913 -23.77410131 464.47461694 -19.44773102 464.47911835 C-7.46357997 464.49130872 4.5205693 464.50160865 16.50472641 464.50499344 C17.27136567 464.505213 18.03800493 464.50543257 18.82787569 464.50565879 C19.98054595 464.50598621 19.98054595 464.50598621 21.15650249 464.50632024 C22.71360318 464.5067637 24.27070387 464.50721026 25.82780457 464.50765991 C26.98636187 464.50799206 26.98636187 464.50799206 28.16832438 464.50833091 C40.68114856 464.51227823 53.19391447 464.52973128 65.70671615 464.55301943 C78.56081128 464.57674923 91.41487719 464.58919602 104.26899457 464.59036136 C111.48313652 464.59127718 118.69720255 464.59700605 125.91132355 464.61518097 C132.69764072 464.63221818 139.48378934 464.63382243 146.27013016 464.62504196 C148.75937155 464.62427102 151.24862065 464.62862183 153.73784256 464.63850021 C157.13931904 464.65120607 160.54028415 464.64534979 163.9417572 464.63491821 C165.41478778 464.64700282 165.41478778 464.64700282 166.91757655 464.65933156 C173.30503044 464.61360482 180.44872522 464.24137843 185.48632312 459.85089231 C189.24059096 455.52643964 189.98573642 452.13372646 189.99243546 446.57390118 C189.9962766 445.38030694 190.00011775 444.1867127 190.00407529 442.95694894 C190.00277557 440.98013932 190.00277557 440.98013932 190.00144958 438.96339417 C190.00403259 437.5543986 190.00704557 436.14540377 190.01045299 434.73640996 C190.01853382 430.85542978 190.02031316 426.97446807 190.02105045 423.09348047 C190.02289912 418.91137022 190.03044549 414.72926961 190.03718567 410.54716492 C190.050777 401.39847246 190.0567949 392.24978439 190.06119633 383.10108352 C190.06395728 377.39078093 190.06819436 371.68048004 190.0727005 365.9701786 C190.084894 350.1661588 190.09519329 334.36214036 190.09857559 318.55811596 C190.09879516 317.54630765 190.09901472 316.53449933 190.09924094 315.49203016 C190.09945922 314.47777501 190.0996775 313.46351985 190.09990239 312.41852969 C190.10034586 310.36319745 190.10079242 308.3078652 190.10124207 306.25253296 C190.1014635 305.23301307 190.10168492 304.21349319 190.10191306 303.16307876 C190.10586207 286.63886089 190.12331884 270.11468709 190.14660159 253.59048625 C190.17030183 236.63339446 190.18277683 219.6763248 190.18394351 202.71921617 C190.184861 193.19515827 190.19063181 183.67115781 190.20876312 174.14711571 C190.22414618 166.03799789 190.22929519 157.92895524 190.22102502 149.81982561 C190.21711219 145.68138525 190.21807885 141.54309636 190.23208237 137.40467453 C190.24478342 133.61657577 190.24365741 129.82874288 190.23149166 126.04064468 C190.22859737 124.02013003 190.24049911 121.99961094 190.25291371 119.97913235 C190.24302895 118.17700613 190.24302895 118.17700613 190.23294449 116.33847332 C190.23354158 115.30346304 190.23413867 114.26845275 190.23475385 113.20207852 C189.6321659 108.47056095 187.68875119 104.44115314 183.92350769 101.45492554 C179.92477979 98.59869132 177.09765879 98.14355865 172.26538372 98.13599777 C171.34211999 98.13215663 170.41885625 98.12831548 169.46761483 98.12435794 C167.95143861 98.12565766 167.95143861 98.12565766 166.40463257 98.12698364 C164.78982773 98.12252696 164.78982773 98.12252696 163.14240056 98.11798024 C159.52279761 98.10928499 155.90322769 98.1077843 152.28361511 98.10629272 C149.69342986 98.10166518 147.10324529 98.0966406 144.51306152 98.09124756 C137.46760025 98.07767086 130.42214468 98.07164066 123.37667251 98.0672369 C118.97711997 98.06447357 114.57756962 98.06023607 110.17801857 98.05573273 C97.99574388 98.04354133 85.81347095 98.0332415 73.6311903 98.02985764 C72.46186837 98.02952829 72.46186837 98.02952829 71.26892378 98.02919228 C70.48751812 98.02897401 69.70611247 98.02875573 68.90102786 98.02853084 C67.31761944 98.02808737 65.73421103 98.02764081 64.15080261 98.02719116 C63.36537849 98.02696973 62.57995437 98.0267483 61.77072952 98.02652016 C49.04309573 98.02257185 36.31551919 98.00511626 23.58790752 97.98183164 C10.51915138 97.95811596 -2.54957602 97.9456557 -15.61835402 97.94448972 C-22.95540751 97.94357312 -30.29238639 97.93782465 -37.62941933 97.9196701 C-44.52979954 97.90265606 -51.43003594 97.90101812 -58.33043098 97.90980911 C-60.86405059 97.91058121 -63.39767771 97.90621417 -65.93127823 97.89635086 C-69.38824409 97.88368135 -72.84470417 97.88948143 -76.30166626 97.89993286 C-77.30575824 97.89187646 -78.30985022 97.88382005 -79.34436923 97.87551951 C-85.66152686 97.92022971 -90.90396753 98.48211272 -95.88117981 102.76742554 Z " fill="#E74C3C" transform="translate(170.1389923095703,15.732574462890625)"/>
<path d="M0 0 C0.90306051 -0.00779995 1.80612102 -0.01559991 2.73654699 -0.02363622 C5.76931631 -0.04361553 8.80083905 -0.0277683 11.83361816 -0.01205444 C14.00503778 -0.01882791 16.17645166 -0.02772951 18.34785461 -0.03860474 C24.25073337 -0.06143663 30.15317613 -0.05254544 36.0560627 -0.03670931 C42.22684041 -0.02407057 48.39758023 -0.03578478 54.56835938 -0.04364014 C64.93207518 -0.05274259 75.29561297 -0.04073304 85.65930176 -0.01693726 C97.6496384 0.01027511 109.6393626 0.00146142 121.62970304 -0.02606928 C131.91514846 -0.04874227 142.20046574 -0.05196925 152.48592806 -0.03887594 C158.63299816 -0.03107152 164.77986832 -0.03006719 170.92692566 -0.04655838 C176.70545587 -0.06097738 182.48343685 -0.05102793 188.26190758 -0.0220871 C190.38557205 -0.0154626 192.50928255 -0.01739709 194.63292885 -0.02840042 C197.52650398 -0.04201336 200.41830622 -0.02499153 203.31176758 0 C204.15728731 -0.01115361 205.00280704 -0.02230722 205.87394857 -0.03379881 C209.82587757 0.03266102 211.72277554 0.2353365 214.67731571 2.96116829 C216.62116389 6.47630161 216.65708255 8.99733249 216.65759277 13.00796509 C216.66569725 14.09428978 216.66569725 14.09428978 216.67396545 15.20256042 C216.68643084 17.58668404 216.66997765 19.96959478 216.65197754 22.35366821 C216.65213258 24.01606306 216.6536224 25.67845827 216.65638733 27.34085083 C216.65777033 30.821035 216.64523011 34.30080655 216.62243652 37.78091431 C216.59405196 42.2364761 216.59679042 46.69135252 216.60952663 51.14696503 C216.61648963 54.57856068 216.60868749 58.00999859 216.59626961 61.4415741 C216.59176112 63.08417658 216.59141304 64.72679603 216.59533501 66.36940002 C216.59825338 68.66724212 216.58171158 70.96414775 216.55993652 73.26187134 C216.55453354 74.5680542 216.54913055 75.87423706 216.54356384 77.22000122 C216.09802495 81.14457334 214.96815026 83.82265174 212.15588379 86.63491821 C209.32038687 86.74394704 206.50887733 86.78716568 203.67253113 86.78881836 C202.32178528 86.79539174 202.32178528 86.79539174 200.94375163 86.80209792 C197.90207427 86.81553821 194.8604259 86.82167645 191.81872559 86.82778931 C189.64775459 86.83568611 187.47678492 86.8439548 185.30581665 86.85256958 C178.15559145 86.87883693 171.00536025 86.8941012 163.85510254 86.90835571 C161.39824736 86.91371332 158.94139222 86.91909082 156.48453712 86.92448807 C146.26854174 86.94612307 136.05254797 86.96486171 125.83653545 86.97611046 C111.17157891 86.99236138 96.50696218 87.02555983 81.84211034 87.08251131 C71.54402362 87.12114752 61.24600784 87.14073562 50.94785053 87.14603102 C44.79062627 87.14969295 38.63368381 87.16180353 32.4765377 87.19413376 C26.68580751 87.22410335 20.89553124 87.23056588 15.10474014 87.21875 C12.97621409 87.21852834 10.84766765 87.22690943 8.71921349 87.24440384 C5.81898465 87.26694911 2.92042225 87.2588687 0.02018738 87.24291992 C-0.82737871 87.25680201 -1.6749448 87.2706841 -2.54819471 87.28498685 C-6.50469571 87.23116662 -8.40526909 87.03895401 -11.36638927 84.31272316 C-13.25177942 80.89618731 -13.40668545 77.97534892 -13.36169434 74.17007446 C-13.36870361 73.43610443 -13.37571289 72.7021344 -13.38293457 71.94592285 C-13.40048268 69.52936524 -13.38890412 67.11398691 -13.37536621 64.69741821 C-13.37806207 63.01260148 -13.38194527 61.32778627 -13.38696289 59.64297485 C-13.39285359 56.11572423 -13.38430907 52.5888794 -13.36560059 49.06167603 C-13.34281096 44.54546305 -13.35593638 40.03020094 -13.37989044 35.51402283 C-13.3943602 32.03609074 -13.3897371 28.55838327 -13.37937927 25.08044434 C-13.37671523 23.41550585 -13.37997043 21.75054682 -13.38929749 20.08563232 C-13.39948294 17.75646123 -13.3839364 15.42881944 -13.36169434 13.09976196 C-13.36979126 12.41493744 -13.37788818 11.73011292 -13.38623047 11.02453613 C-13.33024759 7.85235614 -12.905067 5.74520425 -11.36512756 2.95879555 C-7.81794123 -0.31101358 -4.58733926 -0.06051353 0 0 Z M4.15588379 16.63491821 C4.15588379 34.45491821 4.15588379 52.27491821 4.15588379 70.63491821 C68.50588379 70.63491821 132.85588379 70.63491821 199.15588379 70.63491821 C199.15588379 52.81491821 199.15588379 34.99491821 199.15588379 16.63491821 C134.80588379 16.63491821 70.45588379 16.63491821 4.15588379 16.63491821 Z " fill="#E74C3C" transform="translate(106.8441162109375,161.36508178710938)"/>
<path d="M0 0 C0.81660034 -0.00453111 1.63320068 -0.00906223 2.47454649 -0.01373065 C5.21441663 -0.02640422 7.95408875 -0.02475238 10.69398499 -0.02310181 C12.6568833 -0.02908515 14.61977927 -0.03589025 16.58267212 -0.04345703 C21.91732414 -0.06114249 27.25191203 -0.06581344 32.58659053 -0.0670886 C37.03754975 -0.06898648 41.488494 -0.07634261 45.93944746 -0.08343279 C56.43836351 -0.09972349 66.93724525 -0.10460107 77.43617249 -0.10317993 C88.27325387 -0.10197783 99.11013631 -0.12309183 109.94716734 -0.15466726 C119.24662176 -0.18079904 128.54601108 -0.19154855 137.84550196 -0.19026911 C143.40183252 -0.18975863 148.95798627 -0.19548949 154.51428032 -0.21662521 C159.73869853 -0.23595578 164.96277029 -0.23616758 170.18720055 -0.22159195 C172.10566462 -0.21949641 174.02415008 -0.22424889 175.94257736 -0.23631287 C178.55970317 -0.25170599 181.17562548 -0.24249706 183.79272461 -0.22705078 C184.55362158 -0.23733791 185.31451856 -0.24762503 186.09847301 -0.25822389 C189.70700567 -0.21109049 191.80923401 0.17463708 194.90779972 2.08348656 C197.74254078 5.10041509 197.95985413 7.1727809 197.95985413 11.26742554 C196.61423013 14.21498286 195.87430868 15.81019826 192.95985413 17.26742554 C190.31131308 17.37182027 187.68868345 17.41522165 185.03959656 17.41459656 C184.21174884 17.41827325 183.38390113 17.42194993 182.53096712 17.42573804 C179.74114333 17.43680141 176.95135675 17.44062317 174.16151428 17.44442749 C172.16773357 17.45069004 170.17395403 17.45733665 168.18017578 17.46434021 C162.75251685 17.48176708 157.32486674 17.49230614 151.89718676 17.50054574 C148.50909171 17.50569133 145.12099944 17.5117672 141.73290634 17.51805687 C131.14068534 17.53711193 120.54847133 17.55134352 109.95623648 17.55966884 C97.71336524 17.56944948 85.47067441 17.59578933 73.22786677 17.63616973 C63.77476202 17.66628338 54.32170913 17.68113311 44.86855733 17.68444985 C39.2177623 17.68680539 33.56715992 17.69583135 27.91641617 17.72091103 C22.6025801 17.7441143 17.28906462 17.74845627 11.97519112 17.73814964 C10.02243931 17.73765231 8.06967214 17.74403047 6.11696815 17.75770569 C3.45561629 17.77530434 0.79543003 17.76837836 -1.86592102 17.75517273 C-3.03119137 17.7716266 -3.03119137 17.7716266 -4.22000253 17.78841287 C-7.70989693 17.7464629 -9.66683145 17.54857881 -12.49244118 15.42053509 C-14.51333395 12.60914379 -14.96956426 10.72592447 -15.04014587 7.26742554 C-13.85996249 4.53436928 -12.88082601 2.85400731 -10.42937374 1.14351463 C-6.98398164 -0.11985187 -3.62173352 -0.01469904 0 0 Z " fill="#E74C3C" transform="translate(125.04014587402344,303.7325744628906)"/>
<path d="M0 0 C1.34581902 -0.00856522 1.34581902 -0.00856522 2.71882629 -0.01730347 C4.19165825 -0.01898026 4.19165825 -0.01898026 5.69424438 -0.02069092 C6.73028305 -0.02565582 7.76632172 -0.03062073 8.83375549 -0.03573608 C12.26723897 -0.05036279 15.70067626 -0.05716024 19.13418579 -0.06268311 C21.51688641 -0.06843371 23.89958701 -0.07419146 26.2822876 -0.07995605 C31.28077409 -0.0904672 36.27924449 -0.09630927 41.27774048 -0.09979248 C47.68602825 -0.10528033 54.09410387 -0.1293143 60.50232506 -0.15776443 C65.42479069 -0.17637675 70.34720506 -0.18159565 75.26970291 -0.18312836 C77.63242377 -0.1861581 79.99514365 -0.1941974 82.35783005 -0.20731354 C85.6615393 -0.22434581 88.96472794 -0.22250056 92.26846313 -0.21600342 C93.24630264 -0.2252182 94.22414215 -0.23443298 95.23161316 -0.243927 C100.14474822 -0.21362083 103.66892415 -0.15668522 107.61074829 3.14044189 C109.17546062 6.26986655 109.30776787 9.75126413 108.61074829 13.14044189 C107.24539185 15.23748779 107.24539185 15.23748779 104.61074829 17.14044189 C101.09112612 17.7558587 97.59589313 17.68639738 94.03067017 17.65802002 C92.41546227 17.66853394 92.41546227 17.66853394 90.7676239 17.67926025 C87.20465382 17.69687982 83.64247659 17.68520277 80.07949829 17.67169189 C77.60614876 17.67438565 75.13280025 17.6782671 72.65945435 17.68328857 C67.47433394 17.68918902 62.28948904 17.68060267 57.10440063 17.66192627 C50.45257873 17.63913665 43.80167141 17.65225658 37.14983368 17.67621613 C32.04207481 17.69065904 26.93446939 17.68607493 21.82670593 17.67570496 C19.37385482 17.67303352 16.92098984 17.67632198 14.46815491 17.68562317 C11.04200245 17.69576347 7.61690048 17.68032146 4.19082642 17.65802002 C3.17355972 17.66611694 2.15629303 17.67421387 1.10820007 17.68255615 C-5.75602226 17.5996339 -5.75602226 17.5996339 -9.01950073 15.23309326 C-11.21742104 11.87519754 -11.05692786 9.01137385 -10.38925171 5.14044189 C-7.91920347 0.55320944 -4.94950978 0.01888075 0 0 Z " fill="#E74C3C" transform="translate(167.38925170898438,339.85955810546875)"/>
</svg>
