<svg width="30" height="30" viewBox="0 0 30 30" fill="none" xmlns="http://www.w3.org/2000/svg">
<rect width="30" height="30" rx="15" fill="#DE2B72"/>
<path d="M15.0018 10.8969C12.7316 10.8969 10.9005 12.7281 10.9005 14.9982C10.9005 17.2684 12.7316 19.0995 15.0018 19.0995C17.2719 19.0995 19.1031 17.2684 19.1031 14.9982C19.1031 12.7281 17.2719 10.8969 15.0018 10.8969ZM15.0018 17.6646C13.5347 17.6646 12.3354 16.4688 12.3354 14.9982C12.3354 13.5276 13.5312 12.3318 15.0018 12.3318C16.4724 12.3318 17.6682 13.5276 17.6682 14.9982C17.6682 16.4688 16.4688 17.6646 15.0018 17.6646ZM20.2274 10.7292C20.2274 11.261 19.7991 11.6858 19.2708 11.6858C18.739 11.6858 18.3142 11.2574 18.3142 10.7292C18.3142 10.2009 18.7426 9.77256 19.2708 9.77256C19.7991 9.77256 20.2274 10.2009 20.2274 10.7292ZM22.9438 11.7001C22.8831 10.4186 22.5904 9.28355 21.6516 8.34835C20.7165 7.41316 19.5814 7.12047 18.2999 7.05622C16.9793 6.98126 13.0207 6.98126 11.7001 7.05622C10.4222 7.1169 9.28712 7.40959 8.34835 8.34479C7.40959 9.27998 7.12047 10.4151 7.05622 11.6965C6.98126 13.0172 6.98126 16.9757 7.05622 18.2964C7.1169 19.5778 7.40959 20.7129 8.34835 21.6481C9.28712 22.5833 10.4186 22.876 11.7001 22.9402C13.0207 23.0152 16.9793 23.0152 18.2999 22.9402C19.5814 22.8795 20.7165 22.5868 21.6516 21.6481C22.5868 20.7129 22.8795 19.5778 22.9438 18.2964C23.0187 16.9757 23.0187 13.0207 22.9438 11.7001ZM21.2376 19.7134C20.9592 20.4131 20.4202 20.952 19.717 21.234C18.664 21.6516 16.1654 21.5553 15.0018 21.5553C13.8381 21.5553 11.336 21.6481 10.2866 21.234C9.58695 20.9556 9.04796 20.4166 8.76598 19.7134C8.34835 18.6605 8.44473 16.1619 8.44473 14.9982C8.44473 13.8346 8.35192 11.3324 8.76598 10.283C9.04439 9.58338 9.58338 9.04439 10.2866 8.76241C11.3395 8.34479 13.8381 8.44116 15.0018 8.44116C16.1654 8.44116 18.6676 8.34835 19.717 8.76241C20.4166 9.04083 20.9556 9.57981 21.2376 10.283C21.6552 11.336 21.5588 13.8346 21.5588 14.9982C21.5588 16.1619 21.6552 18.664 21.2376 19.7134Z" fill="white"/>
</svg>
