<svg width="11" height="14" viewBox="0 0 11 14" fill="none" xmlns="http://www.w3.org/2000/svg">
<path d="M1 6.24415V9.13369C1 10.1918 1 10.1918 2 10.8662L4.75 12.4535C5.16279 12.6918 5.83721 12.6918 6.25 12.4535L9 10.8662C10 10.1918 10 10.1918 10 9.13369V6.24415C10 5.18601 10 5.18601 9 4.51159L6.25 2.92438C5.83721 2.68601 5.16279 2.68601 4.75 2.92438L2 4.51159C1 5.18601 1 5.18601 1 6.24415Z" stroke="white" stroke-linecap="round" stroke-linejoin="round"/>
<path d="M8.69766 4.27326V2.74419C8.69766 1.5814 8.11626 1 6.95347 1H4.04649C2.8837 1 2.30231 1.5814 2.30231 2.74419V4.23256M5.86626 6.22674L6.19766 6.74419C6.24998 6.82558 6.36626 6.90698 6.45347 6.93023L7.04649 7.0814C7.41277 7.17442 7.51161 7.48837 7.27324 7.77907L6.8837 8.25C6.82556 8.32558 6.77905 8.4593 6.78487 8.55233L6.81975 9.16279C6.84301 9.5407 6.57556 9.73256 6.22673 9.59302L5.65696 9.36628C5.55322 9.3314 5.44093 9.3314 5.33719 9.36628L4.76742 9.59302C4.41859 9.73256 4.15114 9.53488 4.1744 9.16279L4.20928 8.55233C4.2151 8.4593 4.16859 8.31977 4.11045 8.25L3.72091 7.77907C3.48254 7.48837 3.58138 7.17442 3.94766 7.0814L4.54068 6.93023C4.6337 6.90698 4.74998 6.81977 4.79649 6.74419L5.12789 6.22674C5.33719 5.91279 5.66277 5.91279 5.86626 6.22674Z" stroke="white" stroke-linecap="round" stroke-linejoin="round"/>
</svg>
