<svg width="35" height="33" viewBox="0 0 35 33" fill="none" xmlns="http://www.w3.org/2000/svg">
<path d="M17.5 6.38277V29.6328M10.9125 11.0328H7.425M12.075 15.6828H7.425M33 23.8203V5.11177C33 3.25177 31.481 1.87227 29.6365 2.02727H29.5435C26.2885 2.30627 21.344 3.96477 18.585 5.70077L18.3215 5.87127C17.872 6.15027 17.128 6.15027 16.6785 5.87127L16.291 5.63877C13.532 3.91827 8.603 2.27527 5.348 2.01177C3.5035 1.85677 2 3.25177 2 5.09627V23.8203C2 25.3083 3.209 26.7033 4.697 26.8893L5.1465 26.9513C8.51 27.4008 13.7025 29.1058 16.6785 30.7333L16.7405 30.7643C17.159 30.9968 17.8255 30.9968 18.2285 30.7643C21.2045 29.1213 26.4125 27.4008 29.7915 26.9513L30.303 26.8893C31.791 26.7033 33 25.3083 33 23.8203Z" stroke="#4E4B66" stroke-width="2.3" stroke-linecap="round" stroke-linejoin="round"/>
</svg>
