<svg width="33" height="35" viewBox="0 0 33 35" fill="none" xmlns="http://www.w3.org/2000/svg">
<path d="M30.1837 17.4181V10.3556C30.1837 3.67444 28.6253 2 22.3586 2H9.82512C3.55839 2 2 3.67444 2 10.3556V29.0232C2 33.4331 4.42048 34.4776 7.3549 31.3276L7.37148 31.311C8.73093 29.8687 10.8033 29.9847 11.9803 31.5597L13.6548 33.7978M9.46039 10.2893H22.7233M11.1183 16.9208H21.0654" stroke="#4E4B66" stroke-width="2.3" stroke-linecap="round" stroke-linejoin="round"/>
<path d="M26.3887 23.1709L20.5199 29.0398C20.2878 29.2719 20.0723 29.7029 20.0225 30.0179L19.7075 32.256C19.5915 33.0684 20.1551 33.632 20.9675 33.516L23.2056 33.201C23.5206 33.1513 23.9682 32.9357 24.1838 32.7036L30.0526 26.8348C31.0639 25.8235 31.5447 24.6464 30.0526 23.1543C28.5771 21.6788 27.4 22.1596 26.3887 23.1709Z" stroke="#4E4B66" stroke-width="2.3" stroke-miterlimit="10" stroke-linecap="round" stroke-linejoin="round"/>
<path d="M25.542 24.0164C26.0394 25.8069 27.432 27.1995 29.2224 27.6969" stroke="#4E4B66" stroke-width="2.3" stroke-miterlimit="10" stroke-linecap="round" stroke-linejoin="round"/>
</svg>
