<svg width="17" height="14" viewBox="0 0 17 14" fill="none" xmlns="http://www.w3.org/2000/svg">
<path d="M11.0961 7C11.0961 8.485 9.89607 9.685 8.41107 9.685C6.92607 9.685 5.72607 8.485 5.72607 7C5.72607 5.515 6.92607 4.315 8.41107 4.315C9.89607 4.315 11.0961 5.515 11.0961 7Z" stroke="#F97F68" stroke-width="1.5" stroke-linecap="round" stroke-linejoin="round"/>
<path d="M8.41102 13.2025C11.0585 13.2025 13.526 11.6425 15.2435 8.94254C15.9185 7.88504 15.9185 6.10754 15.2435 5.05004C13.526 2.35004 11.0585 0.790039 8.41102 0.790039C5.76352 0.790039 3.29602 2.35004 1.57852 5.05004C0.903516 6.10754 0.903516 7.88504 1.57852 8.94254C3.29602 11.6425 5.76352 13.2025 8.41102 13.2025Z" stroke="#F97F68" stroke-width="1.5" stroke-linecap="round" stroke-linejoin="round"/>
</svg>
