<svg width="30" height="30" viewBox="0 0 30 30" fill="none" xmlns="http://www.w3.org/2000/svg">
<rect width="30" height="30" rx="15" fill="#E42B26"/>
<path d="M23.2322 10.0341C23.0298 9.23341 22.4334 8.60284 21.6762 8.38885C20.3037 8 14.8 8 14.8 8C14.8 8 9.29635 8 7.92379 8.38885C7.16657 8.60288 6.57018 9.23341 6.36777 10.0341C6 11.4853 6 14.5131 6 14.5131C6 14.5131 6 17.541 6.36777 18.9922C6.57018 19.7929 7.16657 20.3972 7.92379 20.6112C9.29635 21 14.8 21 14.8 21C14.8 21 20.3036 21 21.6762 20.6112C22.4334 20.3972 23.0298 19.7929 23.2322 18.9922C23.6 17.541 23.6 14.5131 23.6 14.5131C23.6 14.5131 23.6 11.4853 23.2322 10.0341ZM13 17.2622V11.7641L17.6 14.5132L13 17.2622Z" fill="white"/>
</svg>
